<?xml version="1.0" encoding="UTF-8" standalone="no"?>
<!-- Created with Inkscape (http://www.inkscape.org/) -->

<svg
   width="160.86665mm"
   height="33.508083mm"
   viewBox="0 0 160.86665 33.508083"
   version="1.1"
   id="svg1"
   xmlns="http://www.w3.org/2000/svg"
   xmlns:svg="http://www.w3.org/2000/svg">
  <defs
     id="defs1">
    <clipPath
       clipPathUnits="userSpaceOnUse"
       id="clipPath2-5">
      <path
         d="M 0,841.89 H 595.276 V 0 H 0 Z"
         transform="translate(-293.08011,-681.69742)"
         id="path2-1" />
    </clipPath>
    <clipPath
       clipPathUnits="userSpaceOnUse"
       id="clipPath4-7">
      <path
         d="M 0,841.89 H 595.276 V 0 H 0 Z"
         transform="translate(-239.84371,-664.52212)"
         id="path4-1" />
    </clipPath>
    <clipPath
       clipPathUnits="userSpaceOnUse"
       id="clipPath6-1">
      <path
         d="M 0,841.89 H 595.276 V 0 H 0 Z"
         transform="translate(-319.77051,-658.00841)"
         id="path6-5" />
    </clipPath>
    <clipPath
       clipPathUnits="userSpaceOnUse"
       id="clipPath8-2">
      <path
         d="M 0,841.89 H 595.276 V 0 H 0 Z"
         transform="translate(-301.83591,-658.00841)"
         id="path8-7" />
    </clipPath>
    <clipPath
       clipPathUnits="userSpaceOnUse"
       id="clipPath10-6">
      <path
         d="M 0,841.89 H 595.276 V 0 H 0 Z"
         transform="translate(-307.39551,-652.65982)"
         id="path10-1" />
    </clipPath>
    <clipPath
       clipPathUnits="userSpaceOnUse"
       id="clipPath12-4">
      <path
         d="M 0,841.89 H 595.276 V 0 H 0 Z"
         transform="translate(-265.02001,-638.98841)"
         id="path12-2" />
    </clipPath>
    <clipPath
       clipPathUnits="userSpaceOnUse"
       id="clipPath14-3">
      <path
         d="M 0,841.89 H 595.276 V 0 H 0 Z"
         transform="translate(-328.64061,-633.80381)"
         id="path14-2" />
    </clipPath>
    <clipPath
       clipPathUnits="userSpaceOnUse"
       id="clipPath16-2">
      <path
         d="M 0,841.89 H 595.276 V 0 H 0 Z"
         transform="translate(-314.36521,-633.80381)"
         id="path16-1" />
    </clipPath>
    <clipPath
       clipPathUnits="userSpaceOnUse"
       id="clipPath18-6">
      <path
         d="M 0,841.89 H 595.276 V 0 H 0 Z"
         transform="translate(-297.18261,-665.15392)"
         id="path18-8" />
    </clipPath>
    <clipPath
       clipPathUnits="userSpaceOnUse"
       id="clipPath20-5">
      <path
         d="M 0,841.89 H 595.276 V 0 H 0 Z"
         transform="translate(-256.6792,-652.08611)"
         id="path20-7" />
    </clipPath>
    <clipPath
       clipPathUnits="userSpaceOnUse"
       id="clipPath22-6">
      <path
         d="M 0,841.89 H 595.276 V 0 H 0 Z"
         transform="translate(-317.49021,-647.13052)"
         id="path22-1" />
    </clipPath>
    <clipPath
       clipPathUnits="userSpaceOnUse"
       id="clipPath24-8">
      <path
         d="M 0,841.89 H 595.276 V 0 H 0 Z"
         transform="translate(-303.84471,-647.13052)"
         id="path24-9" />
    </clipPath>
  </defs>
  <g
     id="layer1"
     transform="translate(-6.6145836,-94.191672)">
    <path
       style="font-weight:bold;font-size:21.147px;font-family:Ubuntu;-inkscape-font-specification:'Ubuntu Bold';letter-spacing:1.1014px;fill:#f9f9f9;stroke-width:5.45327"
       d="m 48.534581,119.13586 v -15.90255 l 3.150903,-0.50752 v 5.32904 q 0.317205,-0.10574 0.803586,-0.19032 0.507528,-0.10574 0.972762,-0.10574 1.353408,0 2.241582,0.38065 0.90932,0.3595 1.437995,1.0362 0.549822,0.6767 0.761292,1.60717 0.232617,0.93047 0.232617,2.07241 v 6.28066 h -3.150902 v -5.90002 q 0,-1.52258 -0.401793,-2.15699 -0.380646,-0.63441 -1.437996,-0.63441 -0.42294,0 -0.803586,0.0846 -0.359499,0.0634 -0.655557,0.14803 v 8.4588 z m 23.961322,-5.58281 q 0,1.31111 -0.380646,2.41076 -0.380646,1.07849 -1.099644,1.86093 -0.718998,0.76129 -1.734054,1.18423 -0.993909,0.42294 -2.241582,0.42294 -1.226526,0 -2.241582,-0.42294 -0.993909,-0.42294 -1.712907,-1.18423 -0.718998,-0.78244 -1.120791,-1.86093 -0.401793,-1.09965 -0.401793,-2.41076 0,-1.31112 0.401793,-2.38961 0.42294,-1.0785 1.141938,-1.83979 0.740145,-0.76129 1.734054,-1.18423 1.015056,-0.42294 2.199288,-0.42294 1.205379,0 2.199288,0.42294 1.015056,0.42294 1.734054,1.18423 0.718998,0.76129 1.120791,1.83979 0.401793,1.07849 0.401793,2.38961 z m -3.214344,0 q 0,-1.45914 -0.592116,-2.28388 -0.570969,-0.84588 -1.649466,-0.84588 -1.078497,0 -1.670613,0.84588 -0.592116,0.82474 -0.592116,2.28388 0,1.45914 0.592116,2.32617 0.592116,0.84588 1.670613,0.84588 1.078497,0 1.649466,-0.84588 0.592116,-0.86703 0.592116,-2.32617 z m 9.940853,3.32008 q 0.867027,0 1.226526,-0.16918 0.359499,-0.16917 0.359499,-0.65556 0,-0.38064 -0.465234,-0.65555 -0.465234,-0.29606 -1.416849,-0.65556 -0.740145,-0.27491 -1.353408,-0.57097 -0.592116,-0.29606 -1.015056,-0.69785 -0.42294,-0.42294 -0.655557,-0.99391 -0.232617,-0.57097 -0.232617,-1.37455 0,-1.56488 1.163085,-2.4742 1.163085,-0.90932 3.193197,-0.90932 1.015056,0 1.945524,0.19032 0.930468,0.16918 1.48029,0.38065 l -0.549822,2.45305 q -0.549822,-0.19033 -1.205379,-0.33835 -0.63441,-0.14803 -1.437996,-0.14803 -1.48029,0 -1.48029,0.82473 0,0.19032 0.06344,0.33835 0.06344,0.14803 0.253764,0.29606 0.190323,0.12688 0.507528,0.29606 0.338352,0.14803 0.84588,0.33835 1.036203,0.38065 1.712907,0.76129 0.676704,0.3595 1.05735,0.80359 0.401793,0.42294 0.549822,0.95161 0.169176,0.52868 0.169176,1.22653 0,1.64946 -1.247673,2.49534 -1.226526,0.84588 -3.489255,0.84588 -1.48029,0 -2.474199,-0.25376 -0.972762,-0.25376 -1.353408,-0.42294 l 0.528675,-2.55879 q 0.803586,0.31721 1.649466,0.50753 0.84588,0.16918 1.670613,0.16918 z m 8.058774,-11.63085 3.150903,-0.50753 v 3.27778 h 3.785313 v 2.62223 h -3.785313 v 3.9122 q 0,0.99391 0.338352,1.58602 0.359499,0.59212 1.416849,0.59212 0.507528,0 1.036203,-0.0846 0.549822,-0.10573 0.993909,-0.27491 l 0.444087,2.45305 q -0.570969,0.23262 -1.26882,0.40179 -0.697851,0.16918 -1.712907,0.16918 -1.289967,0 -2.135847,-0.33835 -0.84588,-0.3595 -1.353408,-0.97276 -0.507528,-0.63441 -0.718998,-1.52259 -0.190323,-0.88817 -0.190323,-1.96667 z m 10.596408,3.1509 q 0.803586,-0.23262 2.072406,-0.42294 1.26882,-0.21147 2.66452,-0.21147 1.41685,0 2.34732,0.38065 0.95161,0.3595 1.50144,1.0362 0.54982,0.6767 0.78244,1.60717 0.23261,0.93047 0.23261,2.07241 v 6.28066 h -3.1509 v -5.90002 q 0,-1.52258 -0.40179,-2.15699 -0.4018,-0.63441 -1.50144,-0.63441 -0.33835,0 -0.719,0.0423 -0.38064,0.0212 -0.6767,0.0634 v 8.58569 h -3.150906 z m 23.961326,5.15987 q 0,1.31111 -0.38065,2.41076 -0.38064,1.07849 -1.09964,1.86093 -0.719,0.76129 -1.73406,1.18423 -0.99391,0.42294 -2.24158,0.42294 -1.22652,0 -2.24158,-0.42294 -0.99391,-0.42294 -1.71291,-1.18423 -0.719,-0.78244 -1.12079,-1.86093 -0.40179,-1.09965 -0.40179,-2.41076 0,-1.31112 0.40179,-2.38961 0.42294,-1.0785 1.14194,-1.83979 0.74014,-0.76129 1.73405,-1.18423 1.01506,-0.42294 2.19929,-0.42294 1.20538,0 2.19929,0.42294 1.01506,0.42294 1.73405,1.18423 0.719,0.76129 1.12079,1.83979 0.4018,1.07849 0.4018,2.38961 z m -3.21435,0 q 0,-1.45914 -0.59211,-2.28388 -0.57097,-0.84588 -1.64947,-0.84588 -1.0785,0 -1.67061,0.84588 -0.59212,0.82474 -0.59212,2.28388 0,1.45914 0.59212,2.32617 0.59211,0.84588 1.67061,0.84588 1.0785,0 1.64947,-0.84588 0.59211,-0.86703 0.59211,-2.32617 z m 13.26095,-0.80359 q -0.42294,1.60717 -0.90932,3.1932 -0.46523,1.58602 -0.99391,3.1932 h -2.45305 q -0.38065,-0.88818 -0.82473,-2.1147 -0.44409,-1.22653 -0.93047,-2.66453 -0.46524,-1.45914 -0.97276,-3.06631 -0.48638,-1.62832 -0.95162,-3.27779 h 3.32008 q 0.16918,0.7613 0.3595,1.67062 0.21147,0.88817 0.42294,1.83979 0.23262,0.95161 0.46523,1.92437 0.25377,0.95162 0.50753,1.83979 0.27491,-0.93047 0.52868,-1.90323 0.27491,-0.97276 0.50752,-1.90323 0.25377,-0.95161 0.46524,-1.81864 0.23262,-0.88817 0.40179,-1.64947 h 2.28388 q 0.16917,0.7613 0.38064,1.64947 0.21147,0.86703 0.44409,1.81864 0.23262,0.93047 0.48638,1.90323 0.25376,0.97276 0.52868,1.90323 0.25376,-0.88817 0.50752,-1.83979 0.25377,-0.97276 0.46524,-1.92437 0.23261,-0.95162 0.42294,-1.83979 0.21147,-0.90932 0.38064,-1.67062 h 3.27779 q -0.46524,1.64947 -0.97276,3.27779 -0.48638,1.60717 -0.97277,3.06631 -0.46523,1.438 -0.93046,2.66453 -0.44409,1.22652 -0.82474,2.1147 h -2.45305 q -0.52867,-1.60718 -1.0362,-3.1932 -0.50753,-1.58603 -0.93047,-3.1932 z m 12.8803,4.71578 q 0,0.95162 -0.61326,1.45915 -0.59212,0.48638 -1.35341,0.48638 -0.76129,0 -1.37456,-0.48638 -0.59211,-0.50753 -0.59211,-1.45915 0,-0.95161 0.59211,-1.43799 0.61327,-0.50753 1.37456,-0.50753 0.76129,0 1.35341,0.50753 0.61326,0.48638 0.61326,1.43799 z m 2.05301,-3.89104 q 0,-1.20538 0.38064,-2.26273 0.40179,-1.0785 1.14194,-1.86094 0.74014,-0.80359 1.79749,-1.26882 1.05735,-0.46523 2.41076,-0.46523 0.88818,0 1.62832,0.16917 0.74015,0.14803 1.438,0.44409 l -0.65556,2.51649 q -0.44409,-0.16917 -0.97276,-0.29606 -0.52868,-0.12688 -1.18423,-0.12688 -1.39571,0 -2.09356,0.86703 -0.6767,0.86703 -0.6767,2.28388 0,1.50143 0.63441,2.32617 0.65556,0.82473 2.26273,0.82473 0.57097,0 1.22652,-0.10574 0.65556,-0.10573 1.20538,-0.33835 l 0.44409,2.57994 q -0.54982,0.23261 -1.37455,0.40179 -0.82474,0.16917 -1.81865,0.16917 -1.52258,0 -2.62222,-0.44408 -1.09965,-0.46524 -1.81865,-1.24768 -0.69785,-0.78243 -1.0362,-1.83978 -0.3172,-1.0785 -0.3172,-2.32617 z m 20.55664,-3.44697 q -0.38065,0.42294 -1.0362,1.14194 -0.63441,0.719 -1.37456,1.58603 -0.74014,0.86702 -1.50144,1.81864 -0.74014,0.95161 -1.3534,1.83979 h 5.37133 v 2.62223 h -9.19894 v -1.86094 q 0.44409,-0.76129 1.05735,-1.62832 0.63441,-0.88817 1.31111,-1.77635 0.69785,-0.88817 1.37456,-1.7129 0.6767,-0.84588 1.24767,-1.52259 h -4.73693 v -2.62223 h 8.83945 z"
       id="text1"
       aria-label="hostnow.cz" />
    <g
       id="g3"
       transform="matrix(0.2326248,0,0,0.2326248,-49.582823,57.30991)">
      <path
         id="path1"
         d="m 0,0 c 0,-22.8 -18.483,-41.283 -41.283,-41.283 -22.8,0 -41.282,18.483 -41.282,41.283 0,22.8 18.482,41.283 41.282,41.283 C -18.483,41.283 0,22.8 0,0"
         style="fill:#0061ed;fill-opacity:1;fill-rule:nonzero;stroke:none"
         transform="matrix(1.3333333,0,0,-1.3333333,390.77347,213.59013)"
         clip-path="url(#clipPath2-5)" />
      <path
         id="path3"
         d="m 0,0 c 0,-16.198 -13.131,-29.33 -29.329,-29.33 -16.198,0 -29.33,13.132 -29.33,29.33 0,16.198 13.132,29.33 29.33,29.33 C -13.131,29.33 0,16.198 0,0"
         style="fill:#0061ed;fill-opacity:1;fill-rule:nonzero;stroke:none"
         transform="matrix(1.3333333,0,0,-1.3333333,319.7916,236.49053)"
         clip-path="url(#clipPath4-7)" />
      <path
         id="path5"
         d="m 0,0 c 0,-13.083 -10.605,-23.689 -23.688,-23.689 -13.083,0 -23.689,10.606 -23.689,23.689 0,13.083 10.606,23.689 23.689,23.689 C -10.605,23.689 0,13.083 0,0"
         style="fill:#0061ed;fill-opacity:1;fill-rule:nonzero;stroke:none"
         transform="matrix(1.3333333,0,0,-1.3333333,426.36067,245.17547)"
         clip-path="url(#clipPath6-1)" />
      <path
         id="path7"
         d="m 0,0 -50.039,29.219 -47.526,-35.024 6.244,-17.011 85.567,-0.873 z"
         style="fill:#0061ed;fill-opacity:1;fill-rule:nonzero;stroke:none"
         transform="matrix(1.3333333,0,0,-1.3333333,402.44787,245.17547)"
         clip-path="url(#clipPath8-2)" />
      <path
         id="path9"
         d="m 0,0 c 0,-18.148 -14.712,-32.86 -32.861,-32.86 -18.148,0 -32.86,14.712 -32.86,32.86 0,18.148 14.712,32.86 32.86,32.86 C -14.712,32.86 0,18.148 0,0"
         style="fill:#0061ed;fill-opacity:1;fill-rule:nonzero;stroke:none"
         transform="matrix(1.3333333,0,0,-1.3333333,409.86067,252.30693)"
         clip-path="url(#clipPath10-6)" />
      <path
         id="path11"
         d="m 0,0 c 0,-12.894 -10.452,-23.346 -23.346,-23.346 -12.893,0 -23.345,10.452 -23.345,23.346 0,12.894 10.452,23.346 23.345,23.346 C -10.452,23.346 0,12.894 0,0"
         style="fill:#0061ed;fill-opacity:1;fill-rule:nonzero;stroke:none"
         transform="matrix(1.3333333,0,0,-1.3333333,353.36,270.53547)"
         clip-path="url(#clipPath12-4)" />
      <path
         id="path13"
         d="m 0,0 c 0,-10.414 -8.442,-18.856 -18.855,-18.856 -10.415,0 -18.857,8.442 -18.857,18.856 0,10.414 8.442,18.856 18.857,18.856 C -8.442,18.856 0,10.414 0,0"
         style="fill:#0061ed;fill-opacity:1;fill-rule:nonzero;stroke:none"
         transform="matrix(1.3333333,0,0,-1.3333333,438.18747,277.44827)"
         clip-path="url(#clipPath14-3)" />
      <path
         id="path15"
         d="m 0,0 -39.831,23.257 -37.83,-27.878 4.97,-13.54 68.111,-0.695 z"
         style="fill:#0061ed;fill-opacity:1;fill-rule:nonzero;stroke:none"
         transform="matrix(1.3333333,0,0,-1.3333333,419.1536,277.44827)"
         clip-path="url(#clipPath16-2)" />
      <path
         id="path17"
         d="m 0,0 c 0,-17.347 -14.062,-31.41 -31.409,-31.41 -17.347,0 -31.409,14.063 -31.409,31.41 0,17.347 14.062,31.409 31.409,31.409 C -14.062,31.409 0,17.347 0,0"
         style="fill:#ffffff;fill-opacity:1;fill-rule:nonzero;stroke:none"
         transform="matrix(1.3333333,0,0,-1.3333333,396.24347,235.64813)"
         clip-path="url(#clipPath18-6)" />
      <path
         id="path19"
         d="m 0,0 c 0,-12.324 -9.991,-22.315 -22.315,-22.315 -12.324,0 -22.315,9.991 -22.315,22.315 0,12.324 9.991,22.315 22.315,22.315 C -9.991,22.315 0,12.324 0,0"
         style="fill:#ffffff;fill-opacity:1;fill-rule:nonzero;stroke:none"
         transform="matrix(1.3333333,0,0,-1.3333333,342.23893,253.07187)"
         clip-path="url(#clipPath20-5)" />
      <path
         id="path21"
         d="m 0,0 c 0,-9.954 -8.069,-18.023 -18.023,-18.023 -9.955,0 -18.024,8.069 -18.024,18.023 0,9.954 8.069,18.023 18.024,18.023 C -8.069,18.023 0,9.954 0,0"
         style="fill:#ffffff;fill-opacity:1;fill-rule:nonzero;stroke:none"
         transform="matrix(1.3333333,0,0,-1.3333333,423.32027,259.67933)"
         clip-path="url(#clipPath22-6)" />
      <path
         id="path23"
         d="m 0,0 -38.071,22.23 -36.16,-26.647 4.751,-12.942 65.102,-0.664 z"
         style="fill:#ffffff;fill-opacity:1;fill-rule:nonzero;stroke:none"
         transform="matrix(1.3333333,0,0,-1.3333333,405.12627,259.67933)"
         clip-path="url(#clipPath24-8)" />
    </g>
  </g>
</svg>
