<?xml version="1.0" encoding="UTF-8" standalone="no"?>
<svg
   id="epqnT0eDjZ51"
   viewBox="0 0 7855.0419 7457.6835"
   shape-rendering="geometricPrecision"
   text-rendering="geometricPrecision"
   project-id="fea22e14345442efb7b18401f0b05135"
   export-id="ca204089fe764a8db7656e1b86c8b0df"
   cached="false"
   version="1.1"
   sodipodi:docname="SmirkHat2(1).svg"
   inkscape:version="1.4.2 (f4327f4, 2025-05-13)"
   width="7855.042"
   height="7457.6836"
   inkscape:export-filename="SmirgdgkHat2(1).png"
   inkscape:export-xdpi="40"
   inkscape:export-ydpi="40"
   xmlns:inkscape="http://www.inkscape.org/namespaces/inkscape"
   xmlns:sodipodi="http://sodipodi.sourceforge.net/DTD/sodipodi-0.dtd"
   xmlns="http://www.w3.org/2000/svg"
   xmlns:svg="http://www.w3.org/2000/svg">
  <defs
     id="defs16">
    <inkscape:path-effect
       effect="fillet_chamfer"
       id="path-effect17"
       is_visible="true"
       lpeversion="1"
       nodesatellites_param="F,0,0,1,0,0,0,1 @ F,0,0,1,0,0,0,1 @ F,0,0,1,0,25.692339,0,1 @ F,0,0,1,0,52.065419,0,1 @ F,0,0,1,0,0,0,1 @ F,0,0,1,0,0,0,1 @ F,0,0,1,0,0,0,1 @ F,0,0,1,0,38.192636,0,1 @ F,0,0,1,0,27.858043,0,1 @ F,0,0,1,0,0,0,1 @ F,0,0,1,0,0,0,1 @ F,0,0,1,0,0,0,1 @ F,0,0,1,0,33.564786,0,1 @ F,0,0,1,0,33.564786,0,1 @ F,0,0,1,0,0,0,1 @ F,0,0,1,0,0,0,1 @ F,0,0,1,0,0,0,1 @ F,0,0,1,0,0,0,1 @ F,0,0,1,0,0,0,1 @ F,0,0,1,0,0,0,1 @ F,0,0,1,0,0,0,1 @ F,0,0,1,0,0,0,1 @ F,0,0,1,0,0,0,1 @ F,0,0,1,0,0,0,1 @ F,0,0,1,0,0,0,1 @ F,0,0,1,0,0,0,1 @ F,0,0,1,0,0,0,1 @ F,0,0,1,0,0,0,1"
       radius="0"
       unit="px"
       method="auto"
       mode="F"
       chamfer_steps="1"
       flexible="false"
       use_knot_distance="true"
       apply_no_radius="true"
       apply_with_radius="true"
       only_selected="false"
       hide_knots="false" />
    <inkscape:path-effect
       effect="fillet_chamfer"
       id="path-effect16"
       is_visible="true"
       lpeversion="1"
       nodesatellites_param="F,0,0,1,0,0,0,1 @ F,0,0,1,0,0,0,1 @ F,0,0,1,0,0,0,1 @ F,0,0,1,0,0,0,1 @ F,0,0,1,0,0,0,1 @ F,0,0,1,0,0,0,1 @ F,0,0,1,0,0,0,1 @ F,0,0,1,0,0,0,1 @ F,0,0,1,0,0,0,1 @ F,0,0,1,0,0,0,1 @ F,0,0,1,0,0,0,1 @ F,0,0,1,0,0,0,1 @ F,0,0,1,0,39.292317,0,1 @ F,0,0,1,0,9.8672249,0,1 @ F,0,0,1,0,26.990393,0,1 @ F,0,0,1,0,0,0,1 @ F,0,0,1,0,0,0,1 @ F,0,0,1,0,0,0,1 @ F,0,0,1,0,0,0,1 @ F,0,0,1,0,0,0,1 @ F,0,0,1,0,0,0,1 @ F,0,0,1,0,0,0,1 @ F,0,0,1,0,0,0,1 @ F,0,0,1,0,0,0,1 @ F,0,0,1,0,0,0,1 @ F,0,0,1,0,0,0,1"
       radius="0"
       unit="px"
       method="auto"
       mode="F"
       chamfer_steps="1"
       flexible="false"
       use_knot_distance="true"
       apply_no_radius="true"
       apply_with_radius="true"
       only_selected="false"
       hide_knots="false" />
    <inkscape:path-effect
       effect="fillet_chamfer"
       id="path-effect16-9"
       is_visible="true"
       lpeversion="1"
       nodesatellites_param="F,0,0,1,0,0,0,1 @ F,0,0,1,0,0,0,1 @ F,0,0,1,0,0,0,1 @ F,0,0,1,0,0,0,1 @ F,0,0,1,0,0,0,1 @ F,0,0,1,0,0,0,1 @ F,0,0,1,0,0,0,1 @ F,0,0,1,0,0,0,1 @ F,0,0,1,0,0,0,1 @ F,0,0,1,0,0,0,1 @ F,0,0,1,0,0,0,1 @ F,0,0,1,0,0,0,1 @ F,0,0,1,0,39.292317,0,1 @ F,0,0,1,0,9.8672249,0,1 @ F,0,0,1,0,26.990393,0,1 @ F,0,0,1,0,0,0,1 @ F,0,0,1,0,0,0,1 @ F,0,0,1,0,0,0,1 @ F,0,0,1,0,0,0,1 @ F,0,0,1,0,0,0,1 @ F,0,0,1,0,0,0,1 @ F,0,0,1,0,0,0,1 @ F,0,0,1,0,0,0,1 @ F,0,0,1,0,0,0,1 @ F,0,0,1,0,0,0,1 @ F,0,0,1,0,0,0,1"
       radius="0"
       unit="px"
       method="auto"
       mode="F"
       chamfer_steps="1"
       flexible="false"
       use_knot_distance="true"
       apply_no_radius="true"
       apply_with_radius="true"
       only_selected="false"
       hide_knots="false" />
    <inkscape:path-effect
       effect="fillet_chamfer"
       id="path-effect17-1"
       is_visible="true"
       lpeversion="1"
       nodesatellites_param="F,0,0,1,0,0,0,1 @ F,0,0,1,0,0,0,1 @ F,0,0,1,0,25.692339,0,1 @ F,0,0,1,0,52.065419,0,1 @ F,0,0,1,0,0,0,1 @ F,0,0,1,0,0,0,1 @ F,0,0,1,0,0,0,1 @ F,0,0,1,0,38.192636,0,1 @ F,0,0,1,0,27.858043,0,1 @ F,0,0,1,0,0,0,1 @ F,0,0,1,0,0,0,1 @ F,0,0,1,0,0,0,1 @ F,0,0,1,0,33.564786,0,1 @ F,0,0,1,0,33.564786,0,1 @ F,0,0,1,0,0,0,1 @ F,0,0,1,0,0,0,1 @ F,0,0,1,0,0,0,1 @ F,0,0,1,0,0,0,1 @ F,0,0,1,0,0,0,1 @ F,0,0,1,0,0,0,1 @ F,0,0,1,0,0,0,1 @ F,0,0,1,0,0,0,1 @ F,0,0,1,0,0,0,1 @ F,0,0,1,0,0,0,1 @ F,0,0,1,0,0,0,1 @ F,0,0,1,0,0,0,1 @ F,0,0,1,0,0,0,1 @ F,0,0,1,0,0,0,1"
       radius="0"
       unit="px"
       method="auto"
       mode="F"
       chamfer_steps="1"
       flexible="false"
       use_knot_distance="true"
       apply_no_radius="true"
       apply_with_radius="true"
       only_selected="false"
       hide_knots="false" />
  </defs>
  <sodipodi:namedview
     id="namedview16"
     pagecolor="#505050"
     bordercolor="#eeeeee"
     borderopacity="1"
     inkscape:showpageshadow="0"
     inkscape:pageopacity="0"
     inkscape:pagecheckerboard="0"
     inkscape:deskcolor="#505050"
     showguides="true"
     inkscape:zoom="0.056568542"
     inkscape:cx="2881.4601"
     inkscape:cy="3588.5669"
     inkscape:window-width="1384"
     inkscape:window-height="878"
     inkscape:window-x="49"
     inkscape:window-y="-6"
     inkscape:window-maximized="1"
     inkscape:current-layer="epqnT0eDjZ51" />
  <style
     id="style1"><![CDATA[
#epqnT0eDjZ53_to {animation: epqnT0eDjZ53_to__to 3000ms linear 1 normal forwards}@keyframes epqnT0eDjZ53_to__to { 0% {transform: translate(4188.825566px,7674.280095px)} 20% {transform: translate(4188.825566px,7674.280095px)} 21% {transform: translate(4179.074119px,7690.875695px)} 21.666667% {transform: translate(4172.573154px,7707.392428px)} 22.333333% {transform: translate(4166.07219px,7718.42544px)} 22.666667% {transform: translate(4162.821708px,7723.941946px)} 23% {transform: translate(4159.571226px,7732.68417px)} 23.333333% {transform: translate(4156.320743px,7736.587817px)} 24.666667% {transform: translate(4156.320743px,7752.716407px)} 25.666667% {transform: translate(4156.320743px,7764.00642px)} 27.333333% {transform: translate(4156.320743px,7780.13501px)} 28.666667% {transform: translate(4156.320743px,7796.2636px)} 30% {transform: translate(4156.320743px,7809.166472px)} 31.666667% {transform: translate(4156.320743px,7822.069344px)} 32.666667% {transform: translate(4156.320743px,7836.585075px)} 33.666667% {transform: translate(4156.320743px,7846.262229px)} 35% {transform: translate(4156.320743px,7857.552242px)} 36.666667% {transform: translate(4156.320743px,7868.842255px)} 38.333333% {transform: translate(4156.320743px,7881.745127px)} 40.333333% {transform: translate(4156.320743px,7894.647999px)} 42% {transform: translate(4156.320743px,7907.550871px)} 44.333333% {transform: translate(4156.320743px,7968.839513px)} 50% {transform: translate(4156.320743px,7968.839513px)} 52.333333% {transform: translate(4156.320743px,7907.550871px)} 54% {transform: translate(4156.320743px,7894.647999px)} 56% {transform: translate(4156.320743px,7881.745127px)} 57.666667% {transform: translate(4156.320743px,7868.842255px)} 59.333333% {transform: translate(4156.320743px,7857.552242px)} 60.666667% {transform: translate(4156.320743px,7846.262229px)} 61.666667% {transform: translate(4156.320743px,7836.585075px)} 62.666667% {transform: translate(4156.320743px,7822.069344px)} 64.333333% {transform: translate(4156.320743px,7809.166472px)} 65.666667% {transform: translate(4156.320743px,7796.2636px)} 67% {transform: translate(4156.320743px,7780.13501px)} 68.666667% {transform: translate(4156.320743px,7764.00642px)} 69.666667% {transform: translate(4156.320743px,7752.716407px)} 71% {transform: translate(4156.320743px,7736.587817px)} 71.333333% {transform: translate(4159.571226px,7732.68417px)} 71.666667% {transform: translate(4162.821708px,7723.941946px)} 72% {transform: translate(4166.07219px,7718.42544px)} 72.666667% {transform: translate(4172.573154px,7707.392428px)} 73.333333% {transform: translate(4179.074119px,7690.875695px)} 74.333333% {transform: translate(4188.825566px,7674.280095px)} 100% {transform: translate(4188.825566px,7674.280095px)}} #epqnT0eDjZ55_to {animation: epqnT0eDjZ55_to__to 3000ms linear 1 normal forwards}@keyframes epqnT0eDjZ55_to__to { 0% {transform: translate(6747.296387px,7773.891358px)} 20% {transform: translate(6747.296387px,7773.891358px)} 46.666667% {transform: translate(6747.296387px,7585.186855px)} 50% {transform: translate(6747.296387px,7585.186855px)} 76.666667% {transform: translate(6747.296387px,7773.891358px)} 100% {transform: translate(6747.296387px,7773.891358px)}} #epqnT0eDjZ512_to {animation: epqnT0eDjZ512_to__to 3000ms linear 1 normal forwards}@keyframes epqnT0eDjZ512_to__to { 0% {transform: translate(1917.652644px,6655.472657px)} 20% {transform: translate(1917.652644px,6655.472657px)} 46.666667% {transform: translate(1427.733878px,7427.58181px)} 50% {transform: translate(1427.733878px,7427.58181px)} 76.666667% {transform: translate(1917.652644px,6655.472657px)} 100% {transform: translate(1917.652644px,6655.472657px)}} #epqnT0eDjZ512_tr {animation: epqnT0eDjZ512_tr__tr 3000ms linear 1 normal forwards}@keyframes epqnT0eDjZ512_tr__tr { 0% {transform: rotate(0deg)} 20% {transform: rotate(0deg)} 46.666667% {transform: rotate(-13.9deg)} 50% {transform: rotate(-13.9deg)} 76.666667% {transform: rotate(0deg)} 100% {transform: rotate(0deg)}} #epqnT0eDjZ519_to {animation: epqnT0eDjZ519_to__to 3000ms linear 1 normal forwards}@keyframes epqnT0eDjZ519_to__to { 0% {transform: translate(7573.794434px,4148.200745px)} 20% {transform: translate(7573.794434px,4148.200745px)} 46.666667% {transform: translate(6302.792744px,3687.800008px)} 50% {transform: translate(6302.792744px,3687.800008px)} 76.666667% {transform: translate(7573.794434px,4148.200745px)} 100% {transform: translate(7573.794434px,4148.200745px)}} #epqnT0eDjZ519_tr {animation: epqnT0eDjZ519_tr__tr 3000ms linear 1 normal forwards}@keyframes epqnT0eDjZ519_tr__tr { 0% {transform: rotate(0deg)} 20% {transform: rotate(0deg)} 46.666667% {transform: rotate(-13.90125deg)} 50% {transform: rotate(-13.90125deg)} 76.666667% {transform: rotate(0deg)} 100% {transform: rotate(0deg)}}
]]></style>
  <g
     id="g20"
     inkscape:label="stíny rukou"
     transform="translate(-2420.5215,-2671.0835)">
    <path
       id="rect16-42"
       style="display:inline;fill:#b45006;fill-opacity:1;stroke-width:1.32052"
       inkscape:label="stín"
       d="m 3909.5412,5284.5605 c -150.4501,0 -364.2912,168.2072 -364.2912,373.0293 v 114.8887 c -5.7251,1.6524 -11.4633,3.3141 -17.2129,4.9824 -10.3255,-166.0513 -84.3243,-296.1455 -240.9603,-296.1455 -163.4345,0 -348.3795,141.6561 -348.3795,317.96 v 166.9629 c -51.204,18.3706 -100.3518,36.7206 -146.5703,54.8457 -52.2453,-27.2956 -85.7116,-36.554 -90.086,36.6562 -166.3311,70.483 -281.8678,126.128 -281.5195,172.1786 l 3.9707,525.0382 c -0.021,19.1563 127.7061,757.418 291.1406,757.418 106.4425,0 128.0041,-157.336 176.5781,-252.5117 31.0283,54.1505 64.6472,88.5566 99.9297,88.5566 64.615,0 97.4099,-55.989 124.0567,-121.2265 l 1469.4433,460.1699 c 168.2469,52.6881 -212.8233,-2074.4883 -376.2578,-2074.4883 -20.2052,0 -62.6832,6.8747 -121.6191,19.2578 -9.5455,-192.8572 -34.0589,-347.5723 -178.2225,-347.5723 z"
       sodipodi:nodetypes="ssccsscccscscscsscs" />
  </g>
  <path
     d="m 1941.2272,9444.9317 c -145.808,-12.802 -359.7937,-58.7862 -500.4027,-107.5331 C 798.89051,9114.8502 341.0118,8575.3141 140.9261,7805.6789 91.7464,7616.5076 39.68154,7355.0809 28.076031,7157.5827 L 17.173723,6972.6761 124.2035,7019.9127 c 156.17128,68.9248 459.56365,168.6628 668.6823,-44.8908 132.57487,-136.7414 217.4849,-42.6332 217.4849,-42.6332 1.0515,-2.7815 101.9391,89.7662 139.0942,107.756 68.8542,33.3379 195.4672,63.6913 265.6749,63.6913 69.6347,0 196.7465,-30.2845 262.8435,-62.6228 65.9035,-32.2436 170.2924,-122.0729 194.5665,-167.4295 10.232,-15.3428 32.2817,-16.683 44.2966,-2.6924 l 40.8542,39.0045 c 3.9416,3.7631 10.3295,9.8672 14.299,13.6009 203.374,191.2971 357.1137,213.7884 416.3579,216.3087 14.6425,0.6229 22.2106,12.3116 17.3143,26.3872 -23.6197,67.9004 -85.6788,254.9838 -104.537,350.1134 -31.5682,159.245 -55.9559,564.4601 1.0184,589.5596 239.109,105.3373 196.0075,-1269.9753 412.3383,-893.3415 112.561,195.9697 526.0023,384.2416 747.2108,468.84 l 291.6957,114.5952 -9.8401,315.6315 c -2.5,80.1887 125.6287,418.5478 178.3858,695.5155 -0.2478,162.508 -343.272,269.9557 -463.2111,331.1332 -341.686,170.7449 -724.0017,277.6445 -1121.5256,307.5108 -171.0083,12.8479 -240.0718,12.6703 -395.9798,-1.0183 z"
     fill="#f4900c"
     stroke-width="11.3315"
     id="path10"
     sodipodi:nodetypes="sssscssssssscsssssccssssssss"
     style="display:inline"
     transform="matrix(0.620017,0,0,0.620017,-6.6773,-239.3042)"
     inkscape:label="dlaň" />
  <g
     id="g19"
     style="display:inline"
     transform="matrix(0.620017,0,0,0.620017,-6.6773,-239.9242)"
     inkscape:label="obličej">
    <path
       d="m 12409.038,8074.686 c 50.143,2139.381 -1736.735,4135.255 -3871.4602,4314.079 -1896.9704,220.367 -3870.4327,-959.918 -4515.794,-2769.4001 -658.8856,-1682.9958 -132.425,-3758.1944 1290.1802,-4887.2598 1440.6465,-1227.6538 3707.9766,-1328.8528 5242.39,-213.0085 1148.125,788.1995 1868.431,2162.007 1854.684,3555.5894 z"
       fill="#ffcc4d"
       stroke-width="1.00365"
       id="path2"
       style="display:inline"
       transform="translate(-1.4515731e-5,4.1934334e-5)"
       inkscape:label="hlava"
       sodipodi:nodetypes="cccccc" />
    <path
       d="m 4088.8752,7889.9946 c 71.2539,-85.1105 152.6375,-161.2635 237.5,-232.8125 111.5235,-94.0273 229.6627,-180.6386 356.25,-253.125 115.092,-65.904 236.8864,-119.9475 362.5,-162.5 134.8001,-45.6645 274.2631,-78.1583 415.793,-93.1787 39.004,-4.1394 78.9511,-6.8932 117.0195,2.5537 33.0151,8.1929 63.6647,25.5907 87.7851,49.5767 24.1203,23.9861 41.6666,54.4789 50.505,87.3271 8.8385,32.8482 8.9724,67.9679 0.6068,100.9397 -8.3657,32.9718 -25.1902,63.7318 -48.2719,88.719 -33.6869,36.468 -80.5403,60.1677 -129.6875,67.1875 -22.2323,3.1755 -44.7884,3.0627 -67.1875,4.6875 -57.977,4.2055 -114.4121,19.995 -170.3125,35.9375 -131.1906,37.4149 -263.1827,76.6164 -382.8125,142.1875 -28.2831,15.5024 -55.7683,32.4253 -82.8125,50 -91.6997,59.5913 -178.3834,126.7104 -260.9375,198.4375 -81.1008,70.4643 -158.7095,145.9064 -221.875,232.8125 -20.3457,27.9926 -39.2222,57.2064 -62.5,82.8125 -23.6623,26.0291 -51.8685,48.1521 -83.6358,63.2602 -31.7673,15.1081 -67.1515,23.0633 -102.2768,21.1579 -62.7394,-3.4034 -122.7278,-39.9974 -154.4633,-94.2253 -31.7355,-54.2279 -34.2596,-124.4515 -6.4991,-180.8178 41.7014,-74.6488 90.4231,-145.3738 145.3125,-210.9375 z"
       fill="#664500"
       id="path3"
       style="display:inline"
       transform="translate(1.9999306,1.0000145)"
       inkscape:label="pravé obočí" />
    <path
       d="m 5581.7242,9228.6815 c -73.0331,-20.4312 -127.6793,-52.6246 -183.6167,-108.1732 -78.5441,-77.9981 -116.9037,-171.0918 -116.9037,-283.7093 v -39.3978 l -46.4039,5.8014 c -242.5807,30.3277 -415.0189,81.9984 -567.8951,170.1685 -132.7115,76.5403 -145.9008,82.0151 -197.5812,82.0151 -153.7486,0 -243.3158,-165.7315 -157.9925,-292.3427 31.0241,-46.0367 96.6988,-90.9243 231.83,-158.4521 270.0808,-134.9647 543.3299,-194.4401 893.3209,-194.4401 227.1983,0 452.5326,27.7785 525.2312,64.7489 22.8595,11.625 50.9739,36.2609 66.2912,58.0892 25.3097,36.0681 26.6481,42.4639 27.6434,132.0995 0.5754,51.808 4.0476,122.0387 7.7163,156.0682 27.2616,252.8679 -236.5547,476.0878 -481.6399,407.5244 z"
       fill="#664500"
       stroke-width="8.85275"
       id="path5"
       inkscape:label="pravé oko" />
    <path
       d="m 9386.2309,7781.4792 c -75.6105,-81.2647 -160.8682,-153.054 -249.359,-220.0636 -116.2917,-88.0617 -238.8019,-168.3714 -369.0094,-234.1334 -118.3835,-59.7902 -242.8394,-107.3853 -370.5079,-143.3055 -137.0052,-38.5471 -277.9777,-63.6977 -420.0997,-71.2902 -39.1672,-2.0924 -79.2036,-2.7516 -116.7254,8.6747 -32.5411,9.9095 -62.2381,28.8876 -85.0701,54.1031 -22.832,25.2155 -38.7583,56.5849 -45.8656,89.8507 -7.1072,33.2657 -5.4029,68.3442 4.6769,100.833 10.0797,32.4888 28.4911,62.3262 52.8489,86.0711 35.5494,34.6549 83.5788,55.8698 133.026,60.3079 22.3681,2.0076 44.8874,0.7145 67.3409,1.1648 58.1177,1.1655 115.3019,13.9797 171.9601,26.9747 132.969,30.4975 266.8318,62.7375 389.7293,121.9578 29.0557,14.001 57.3889,29.4622 85.3158,45.5975 94.6928,54.7105 184.7704,117.201 270.9653,184.5093 84.6774,66.1233 166.1279,137.4002 233.7552,220.8812 21.7829,26.8894 42.1625,55.0752 66.7486,79.428 24.9922,24.755 54.3175,45.3715 86.832,58.7964 32.5144,13.4248 68.2665,19.5174 103.2439,15.7763 62.4753,-6.6822 120.4664,-46.3656 149.3204,-102.1801 28.854,-55.8145 27.6992,-126.074 -2.9734,-180.9102 -45.551,-72.3641 -97.9073,-140.4423 -156.1528,-203.0435 z"
       fill="#664500"
       id="path4"
       style="display:inline"
       transform="translate(1.9999306,1.0000145)"
       inkscape:label="levé obočí" />
    <path
       d="m 7977.2626,9182.6381 c -162.6997,-43.7213 -283.0569,-200.196 -283.0569,-367.998 v -53.5556 l -69.8478,5.3863 c -207.4051,15.9939 -424.6006,88.0716 -614.9853,204.0868 -73.7127,44.9184 -112.0949,53.9287 -172.4859,40.4913 -82.5263,-18.3627 -150.2096,-101.9351 -150.2096,-185.4724 0,-77.4589 43.3612,-134.721 152.2584,-201.0698 201.251,-122.6181 420.7876,-198.1151 691.7517,-237.8884 145.4478,-21.3494 476.8791,-21.3361 631.9767,0.025 161.8121,22.2863 208.8219,37.4098 252.7114,81.2993 45.5646,45.5645 60.6978,88.2897 52.6842,148.7415 -8.4538,63.7716 -8.2414,74.0786 2.7516,133.5149 26.1025,141.1294 -55.7963,316.844 -182.2062,390.9251 -90.5026,53.0381 -209.4407,68.8969 -311.3423,41.5135 z"
       fill="#664500"
       stroke-width="8.85275"
       id="path6"
       inkscape:label="levé oko" />
    <path
       d="m 7007.8125,10881.185 c -2.5781,-0.67 -39.1406,-3.43 -81.25,-6.133 -42.1094,-2.704 -113.8281,-7.682 -159.375,-11.064 -45.5469,-3.382 -115.1562,-8.238 -154.6875,-10.79 -85.2151,-5.502 -218.8803,-14.611 -342.1875,-23.32 -85.938,-6.07 -124.4884,-8.722 -320.3125,-22.037 -145.9393,-9.924 -357.4901,-24.686 -375.218,-26.184 -15.6421,-1.322 -43.2858,-14.785 -56.5448,-27.539 -5.4384,-5.231 -13.7731,-18.142 -18.5218,-28.69 -21.3558,-47.437 -0.3308,-100.9 48.5141,-123.36 20.3664,-9.366 37.3712,-9.817 145.5205,-3.866 102.539,5.643 489.3987,8.039 588.1839,3.643 277.9107,-12.366 456.7067,-35.512 606.086,-78.46 42.0171,-12.08 142.7055,-52.565 372.9176,-149.942 31.7969,-13.45 81.7188,-34.265 110.9375,-46.257 56.2205,-23.073 241.0727,-100.034 301.5625,-125.551 144.4865,-60.951 152.8546,-63.35 184.1273,-52.789 21.8507,7.379 43.5859,25.256 55.5707,45.706 6.6964,11.427 8.6039,19.253 9.6356,39.535 1.2757,25.08 1.1437,25.606 -16.0398,63.945 -63.6326,141.976 -191.1943,301.033 -315.7997,393.772 -97.7695,72.767 -177.5656,114.607 -283.907,148.863 -52.5671,16.934 -121.0026,31.169 -171.0871,35.587 -41.4277,3.654 -121.22,6.725 -128.125,4.931 z"
       fill="#664500"
       stroke-width="3.12992"
       id="path7"
       inkscape:label="úsměv" />
  </g>
  <g
     id="g18"
     inkscape:label="klobouk"
     transform="translate(-2420.5215,-2671.0835)">
    <path
       d="m 2623.4921,7144.1272 c 219.9345,265.9193 625.9057,510.7047 1000.6556,618.9801 435.8896,144.3243 884.3632,167.8076 1338.3473,130.7256 972.0526,-9.6885 1933.6201,-181.8525 2874.9655,-408.9565 649.9147,-151.2126 1262.0765,-434.6706 1880.6965,-687.831 1068.246,-482.5255 2078.898,-1157.0027 2808.152,-2085.0145 341.455,-541.5179 85.393,-1309.6736 -491.647,-1567.1724 -434.388,-273.3879 -950.436,-387.8742 -1454.497,-422.6997 C 10469.751,2066.7212 10283.584,1412.4961 9982.2484,819.70593 9669.23,401.79418 9107.4145,603.18515 8673.0161,605.86922 7902.6425,432.88095 7082.9361,291.02631 6300.2019,469.17701 5414.6048,738.91541 4592.1323,1444.8023 4412.7216,2383.8928 c -200.493,700.7296 -227.6696,1431.9201 -279.5405,2154.52 -736.4156,328.7661 -1441.4515,922.3536 -1627.8853,1743.7324 -54.4446,288.2783 -74.9335,620.8442 118.1963,861.982 z"
       fill="#66757f"
       stroke-width="2.53968"
       id="path14"
       inkscape:label="klobouk"
       sodipodi:nodetypes="ccccccccccccccc"
       style="display:inline"
       transform="matrix(0.620017,0,0,0.620017,2413.8442,2431.1593)" />
    <path
       d="m 6185.4351,6117.428 c -701.4261,-13.7059 -1496.8201,-48.6247 -1996.4987,-607.2137 -93.4093,-311.4358 -51.6317,-649.4952 -55.7553,-971.8015 25.6377,-368.9326 26.4364,-389.9104 26.4364,-389.9104 365.1993,192.9753 761.1498,379.0591 1119.4394,434.6109 523.4904,48.0127 1052.9915,8.6099 1574.6032,-47.583 746.2912,-83.7566 1492.7467,-215.2834 2199.5626,-470.2149 516.287,-197.7316 1053.5573,-471.0169 1509.9703,-752.2289 137.139,-73.4035 167.479,-119.8244 207.928,116.5682 66.823,349.472 125.24,708.1331 126.984,1063.1876 -99.78,221.0535 -338.496,338.4039 -520.875,484.9059 -624.1953,383.8337 -1301.5333,679.7565 -2006.8508,873.7722 C 7248.0559,6159.475 6305.0571,6123.4533 6185.4351,6117.428 Z M 5100.0093,2211.2795 c -223.7096,-3.2869 -207.5659,-392.5989 -78.5227,-453.0603 191.2147,-75.4578 -70.733,395.8388 218.2053,236.0222 781.9479,-598.004 3442.9266,-1400.59637 3434.5064,-1388.78865 -33.0682,91.95626 -2327.4511,942.58015 -3226.5437,1491.14295 -108.8062,58.2962 -218.2014,127.2723 -347.6453,114.6838 z"
       fill="#292f33"
       stroke-width="2.53968"
       id="path15"
       sodipodi:nodetypes="ccccccccccccccccccc"
       style="display:inline"
       inkscape:label="detaily"
       transform="matrix(0.620017,0,0,0.620017,2413.8442,2431.1593)" />
  </g>
  <g
     id="g17"
     inkscape:label="ruka"
     style="display:inline"
     transform="translate(-2420.5215,-2671.0835)">
    <path
       id="rect16"
       style="display:inline;fill:#f4900c;stroke-width:1.13418"
       inkscape:label="malíček"
       d="m 2681.2791,5705.8999 c 144.4597,0 260.7576,118.457 260.7576,265.5986 v 516.8405 c 0,147.1416 -116.2979,265.5986 -260.7576,265.5986 -144.4597,0 -260.7576,-118.457 -260.7576,-265.5986 v -516.8405 c 0,-147.1416 116.2979,-265.5986 260.7576,-265.5986 z" />
    <path
       id="rect16-2-6"
       style="display:inline;fill:#f4900c;stroke-width:1.24682"
       inkscape:label="prsteníček"
       d="m 3287.0768,5481.3154 c 143.7663,0 259.5058,115.7396 259.5058,259.5058 v 753.6106 c 0,143.7662 -115.7395,259.5058 -259.5058,259.5058 -143.7662,0 -259.5058,-115.7396 -259.5058,-259.5058 v -753.6106 c 0,-143.7662 115.7396,-259.5058 259.5058,-259.5058 z" />
    <path
       id="rect16-4"
       style="display:inline;fill:#f4900c;stroke-width:1.37894"
       inkscape:label="prostředníček"
       d="m 3909.5412,5284.5605 c 152.3058,0 274.9203,122.6145 274.9203,274.9204 v 919.5365 c 0,152.3059 -122.6145,274.9203 -274.9203,274.9203 -152.3059,0 -274.9204,-122.6144 -274.9204,-274.9203 v -919.5365 c 0,-152.3059 122.6145,-274.9204 274.9204,-274.9204 z" />
    <path
       id="rect16-42-7-3"
       style="display:inline;fill:#b45006;fill-opacity:1;stroke-width:1.20525"
       inkscape:label="stín ukazováčku"
       d="m 4495.3099,4815.5762 c 150.4501,0 229.2468,129.7349 229.2468,289.2784 v 560.4026 c 0,159.5436 -121.1205,287.9848 -271.5706,287.9848 -150.4501,0 -271.5706,-128.4412 -271.5706,-287.9848 v -560.4026 c 0,-159.5435 163.4443,-289.2784 313.8944,-289.2784 z"
       sodipodi:nodetypes="sssssss" />
    <path
       id="rect16-4-5"
       style="display:inline;fill:#f4900c;stroke-width:1.16863"
       inkscape:label="ukazováček"
       d="m 4495.3099,4815.5762 c 140.5162,0 253.6394,113.1232 253.6394,253.6394 v 636.6264 c 0,140.5162 -113.1232,253.6394 -253.6394,253.6394 -140.5163,0 -253.6395,-113.1232 -253.6395,-253.6394 v -636.6264 c 0,-140.5162 113.1232,-253.6394 253.6395,-253.6394 z" />
  </g>
</svg>
